<?xml version="1.0" encoding="UTF-8"?>
<svg id="Calque_2" data-name="Calque 2" xmlns="http://www.w3.org/2000/svg" xmlns:xlink="http://www.w3.org/1999/xlink" viewBox="0 0 209.56 177.39">
  <defs>
    <linearGradient id="Degradado_sin_nombre_56" data-name="Degradado sin nombre 56" x1="167.98" y1="65.07" x2="168.38" y2="65.77" gradientTransform="translate(8.88 161.38) rotate(-51.41)" gradientUnits="userSpaceOnUse">
      <stop offset="0" stop-color="#eebf49"/>
      <stop offset="1" stop-color="#db3664"/>
    </linearGradient>
    <linearGradient id="Degradado_sin_nombre_56-2" data-name="Degradado sin nombre 56" x1="168.33" y1="64.64" x2="168.39" y2="64.74" xlink:href="#Degradado_sin_nombre_56"/>
  </defs>
  <g id="OBJECTS">
    <g id="icon">
      <path d="M184.24,48.79H89.34c-13.37,0-24.21-10.84-24.21-24.21h0C65.13,11.21,75.97,.37,89.34,.37h94.9c13.37,0,24.21,10.84,24.21,24.21h0c0,13.37-10.84,24.21-24.21,24.21Z" style="fill: #f9bdbd;"/>
      <path d="M66.09,11.07h0c-7.88,12.17-3.28,28.45,9.76,34.79,22.66,11.02,54.15,31.17,67.36,62.27,21.72,51.14-22.45,66.93-39.79,61.45,0,0,44.42,20.93,70.72-30.98,23.23-45.85-21.65-97.9-74-134.18-11.22-7.77-26.63-4.81-34.05,6.65Z" style="fill: #230202;"/>
      <path d="M3.87,107.18h0c7.88-12.17,24.61-14.64,35.74-5.33,19.33,16.16,50.6,36.65,84.38,35.98,55.55-1.11,50.15-61.47,38.05-75.05,0,0,47.14,51.35,5.46,95.17-34.92,36.72-101.23,15.94-155.75-16.98C.05,133.91-3.55,118.64,3.87,107.18Z" style="fill: #bf1616;"/>
      <g>
        <path d="M169.13,101.31c3.25-6.54,4.8-13.81,5.13-20.87-5.95-10.82-12.23-17.66-12.23-17.66,5.61,6.3,9.78,22.68,7.09,38.53Z" style="fill: #700;"/>
        <path d="M171.86,144.22c-34.92,36.72-101.23,15.94-155.75-16.98-7.57-4.57-11.75-12.6-11.73-20.8-.17,.24-.34,.49-.51,.74-7.42,11.46-3.81,26.73,7.87,33.79,54.52,32.92,120.83,53.7,155.75,16.98,9.66-10.16,14.55-20.72,16.36-30.96-2.71,5.79-6.61,11.57-11.99,17.23Z" style="fill: #700;"/>
      </g>
      <path d="M165.14,71.23c-.22-.36-.44-.7-.66-1.02,.12,.18,.35,.53,.66,1.02Z" style="fill: url(#Degradado_sin_nombre_56);"/>
      <path d="M164.48,70.21c-.06-.1-.1-.14-.1-.14,.03,.05,.07,.1,.1,.14Z" style="fill: url(#Degradado_sin_nombre_56-2);"/>
      <circle cx="184.82" cy="24.74" r="24.73" style="fill: #bf1616;"/>
      <path d="M208.89,19.05c-.33-1.38-.77-2.7-1.3-3.96,1.51,12.34-6.48,24.11-18.86,27.03-11.91,2.82-23.85-3.5-28.46-14.42,.11,.91,.27,1.82,.48,2.73,3.14,13.29,16.47,21.52,29.76,18.38,13.29-3.14,21.52-16.47,18.38-29.76Z" style="fill: #700;"/>
    </g>
  </g>
</svg>