<?xml version="1.0" encoding="UTF-8"?>
<svg id="Calque_2" data-name="Calque 2" xmlns="http://www.w3.org/2000/svg" xmlns:xlink="http://www.w3.org/1999/xlink" viewBox="0 0 396.07 177.39">
  <defs>
    <linearGradient id="Degradado_sin_nombre_56" data-name="Degradado sin nombre 56" x1="167.98" y1="65.07" x2="168.38" y2="65.77" gradientTransform="translate(8.88 161.38) rotate(-51.41)" gradientUnits="userSpaceOnUse">
      <stop offset="0" stop-color="#eebf49"/>
      <stop offset="1" stop-color="#db3664"/>
    </linearGradient>
    <linearGradient id="Degradado_sin_nombre_56-2" data-name="Degradado sin nombre 56" x1="168.33" y1="64.64" x2="168.39" y2="64.74" xlink:href="#Degradado_sin_nombre_56"/>
  </defs>
  <g id="OBJECTS">
    <g>
      <g id="icon">
        <path d="M184.24,48.79H89.34c-13.37,0-24.21-10.84-24.21-24.21h0C65.13,11.21,75.97,.37,89.34,.37h94.9c13.37,0,24.21,10.84,24.21,24.21h0c0,13.37-10.84,24.21-24.21,24.21Z" style="fill: #f9bdbd;"/>
        <path d="M66.09,11.07h0c-7.88,12.17-3.28,28.45,9.76,34.79,22.66,11.02,54.15,31.17,67.36,62.27,21.72,51.14-22.45,66.93-39.79,61.45,0,0,44.42,20.93,70.72-30.98,23.23-45.85-21.65-97.9-74-134.18-11.22-7.77-26.63-4.81-34.05,6.65Z" style="fill: #230202;"/>
        <path d="M3.87,107.18h0c7.88-12.17,24.61-14.64,35.74-5.33,19.33,16.16,50.6,36.65,84.38,35.98,55.55-1.11,50.15-61.47,38.05-75.05,0,0,47.14,51.35,5.46,95.17-34.92,36.72-101.23,15.94-155.75-16.98C.05,133.91-3.55,118.64,3.87,107.18Z" style="fill: #bf1616;"/>
        <g>
          <path d="M169.13,101.31c3.25-6.54,4.8-13.81,5.13-20.87-5.95-10.82-12.23-17.66-12.23-17.66,5.61,6.3,9.78,22.68,7.09,38.53Z" style="fill: #700;"/>
          <path d="M171.86,144.22c-34.92,36.72-101.23,15.94-155.75-16.98-7.57-4.57-11.75-12.6-11.73-20.8-.17,.24-.34,.49-.51,.74-7.42,11.46-3.81,26.73,7.87,33.79,54.52,32.92,120.83,53.7,155.75,16.98,9.66-10.16,14.55-20.72,16.36-30.96-2.71,5.79-6.61,11.57-11.99,17.23Z" style="fill: #700;"/>
        </g>
        <path d="M165.14,71.23c-.22-.36-.44-.7-.66-1.02,.12,.18,.35,.53,.66,1.02Z" style="fill: url(#Degradado_sin_nombre_56);"/>
        <path d="M164.48,70.21c-.06-.1-.1-.14-.1-.14,.03,.05,.07,.1,.1,.14Z" style="fill: url(#Degradado_sin_nombre_56-2);"/>
        <circle cx="184.82" cy="24.74" r="24.73" style="fill: #bf1616;"/>
        <path d="M208.89,19.05c-.33-1.38-.77-2.7-1.3-3.96,1.51,12.34-6.48,24.11-18.86,27.03-11.91,2.82-23.85-3.5-28.46-14.42,.11,.91,.27,1.82,.48,2.73,3.14,13.29,16.47,21.52,29.76,18.38,13.29-3.14,21.52-16.47,18.38-29.76Z" style="fill: #700;"/>
      </g>
      <g>
        <path d="M235.6,135.3c-3.92,0-7.3-.72-10.16-2.13-2.85-1.42-5.04-3.37-6.55-5.86-1.52-2.49-2.27-5.4-2.26-8.74,0-3.26,.59-6.3,1.75-9.12,1.16-2.82,2.79-5.26,4.9-7.32,2.11-2.06,4.62-3.68,7.53-4.85,2.91-1.17,6.16-1.75,9.75-1.74,3.44,0,6.48,.6,9.12,1.77,2.63,1.18,4.61,2.85,5.92,5.01l-6.44,5.26c-.95-1.43-2.19-2.54-3.73-3.33-1.54-.79-3.37-1.19-5.49-1.19-2.16,0-4.12,.38-5.88,1.14-1.76,.77-3.27,1.83-4.54,3.2-1.27,1.37-2.23,2.96-2.89,4.77-.66,1.81-1,3.76-1,5.85,0,1.94,.4,3.63,1.23,5.08s2.05,2.58,3.67,3.41c1.63,.83,3.58,1.24,5.85,1.25,1.98,0,3.83-.36,5.55-1.09,1.72-.73,3.28-1.86,4.67-3.4l5.21,5.39c-1.98,2.34-4.35,4.03-7.1,5.07-2.75,1.04-5.79,1.55-9.12,1.55Z" style="fill: #020a26;"/>
        <path d="M261.69,134.69l7.76-38.43,8.9,.02-6.27,31.19,19.22,.04-1.44,7.25-28.18-.06Z" style="fill: #020a26;"/>
        <path d="M318.54,135.46c-3.74,0-6.85-.75-9.33-2.22-2.49-1.47-4.24-3.52-5.26-6.16-1.02-2.64-1.16-5.73-.42-9.28l4.33-21.47,8.9,.02-4.27,21.36c-.33,1.76-.44,3.27-.31,4.53,.12,1.26,.5,2.32,1.12,3.16,.62,.84,1.46,1.48,2.52,1.9,1.06,.42,2.3,.63,3.73,.64,1.79,0,3.35-.35,4.67-1.06,1.32-.71,2.42-1.82,3.3-3.32,.88-1.5,1.54-3.44,1.99-5.82l4.38-21.36,8.73,.02-4.44,21.96c-1.11,5.67-3.31,9.94-6.59,12.81-3.28,2.87-7.63,4.3-13.05,4.29Z" style="fill: #020a26;"/>
        <path d="M349.74,134.86l7.76-38.43,18.57,.04c4.17,0,7.37,.77,9.58,2.27,2.21,1.51,3.32,3.69,3.31,6.54,0,2.42-.64,4.45-1.91,6.09-1.27,1.64-2.94,2.89-5.01,3.73s-4.37,1.25-6.9,1.25l1.49-2.19c3.22,0,5.79,.75,7.71,2.24,1.92,1.49,2.88,3.6,2.87,6.35,0,2.75-.75,5.02-2.24,6.83-1.49,1.81-3.54,3.15-6.16,4.02-2.62,.87-5.58,1.31-8.87,1.3l-20.21-.04Zm10.17-6.68l10.55,.02c2.45,0,4.38-.46,5.77-1.39s2.09-2.31,2.09-4.14c0-1.43-.51-2.44-1.53-3.05-1.02-.61-2.43-.91-4.23-.91l-11.64-.02,1.28-6.48,10,.02c1.57,0,2.91-.2,4.01-.6,1.1-.4,1.94-1.01,2.53-1.83,.59-.82,.88-1.82,.88-2.99,0-1.28-.49-2.21-1.48-2.78-.99-.57-2.38-.86-4.17-.86l-9.01-.02-5.05,25.04Z" style="fill: #020a26;"/>
      </g>
      <g>
        <path d="M207.81,164.11c-1.87,0-3.47-.33-4.8-1-1.33-.67-2.34-1.6-3.04-2.79-.69-1.2-1.04-2.58-1.04-4.17s.27-3.04,.81-4.41,1.31-2.58,2.32-3.63c1.01-1.04,2.21-1.86,3.62-2.44,1.4-.58,2.98-.88,4.72-.88,1.89,0,3.5,.33,4.83,1,1.33,.67,2.34,1.6,3.04,2.79s1.04,2.59,1.04,4.17-.27,3.04-.81,4.41c-.54,1.38-1.31,2.59-2.32,3.63-1.01,1.04-2.22,1.86-3.63,2.44-1.41,.58-2.99,.88-4.73,.88Zm.24-2.4c1.29,0,2.47-.23,3.53-.69,1.06-.46,1.96-1.1,2.7-1.92s1.3-1.76,1.7-2.82c.4-1.06,.59-2.19,.59-3.37s-.24-2.13-.73-2.98-1.21-1.52-2.16-2.01c-.95-.49-2.12-.73-3.51-.73-1.31,0-2.5,.23-3.55,.69-1.05,.46-1.95,1.1-2.7,1.92-.75,.82-1.32,1.76-1.71,2.82s-.59,2.19-.59,3.37,.25,2.13,.74,2.98,1.21,1.52,2.16,2.01c.94,.49,2.12,.73,3.52,.73Z" style="fill: #020a26;"/>
        <path d="M224.34,163.9l3.78-18.89h2.19l5.67,14.3-1.16-.03,11.09-14.27h2.32l-3.78,18.89h-2.59l2.99-14.89,.67,.05-9.85,12.55h-1.24l-5.1-12.6,.57,.08-2.97,14.81h-2.59Z" style="fill: #020a26;"/>
        <path d="M253.08,163.9l3.78-18.89h2.21l9.07,15.59-.81-.11,3.08-15.49h2.7l-3.78,18.89h-2.21l-9.07-15.59,.81,.11-3.08,15.49h-2.7Z" style="fill: #020a26;"/>
        <path d="M277.95,163.9l3.78-18.89h2.7l-3.78,18.89h-2.7Z" style="fill: #020a26;"/>
        <path d="M295.11,164.11c-.95,0-1.88-.1-2.79-.31-.91-.21-1.74-.48-2.48-.82-.75-.34-1.34-.73-1.79-1.16l1.19-2.16c.49,.43,1.06,.81,1.71,1.13,.66,.32,1.36,.58,2.1,.75,.75,.18,1.51,.27,2.31,.27,1.01,0,1.9-.13,2.67-.38,.77-.25,1.37-.62,1.79-1.09s.63-1.06,.63-1.74c0-.56-.18-1.02-.54-1.38-.36-.36-.82-.65-1.39-.88-.57-.22-1.2-.43-1.89-.62-.69-.19-1.38-.41-2.08-.65-.69-.24-1.32-.54-1.89-.9-.57-.36-1.03-.82-1.38-1.39-.35-.57-.53-1.28-.53-2.14,0-1.21,.33-2.24,1-3.12,.67-.87,1.59-1.55,2.77-2.02s2.54-.71,4.09-.71c1.17,0,2.28,.13,3.34,.4,1.06,.27,1.97,.67,2.73,1.19l-1.08,2.21c-.7-.5-1.49-.88-2.38-1.13-.88-.25-1.8-.38-2.75-.38-1.02,0-1.92,.13-2.67,.41-.75,.27-1.34,.65-1.75,1.15-.41,.5-.63,1.08-.65,1.74,0,.58,.17,1.04,.51,1.4,.34,.36,.8,.66,1.38,.89,.58,.23,1.21,.45,1.9,.66s1.38,.42,2.06,.65c.68,.23,1.32,.51,1.9,.86,.58,.35,1.05,.8,1.4,1.34,.35,.54,.53,1.22,.53,2.05,0,1.21-.34,2.25-1.01,3.14-.67,.89-1.61,1.57-2.81,2.04s-2.58,.7-4.17,.7Z" style="fill: #020a26;"/>
        <path d="M309.01,163.9l3.78-18.89h7.01c2.21,0,3.92,.49,5.13,1.46,1.2,.97,1.81,2.33,1.81,4.07,0,1.6-.36,2.97-1.07,4.11-.71,1.14-1.73,2.01-3.06,2.62-1.33,.6-2.91,.9-4.72,.9h-6.21l1.43-1.29-1.4,7.01h-2.7Zm4.05-6.72l-.94-1.35h5.83c1.92,0,3.42-.43,4.49-1.28,1.07-.85,1.61-2.11,1.61-3.76,0-1.13-.39-1.99-1.16-2.56-.77-.58-1.88-.86-3.32-.86h-5.69l1.43-1.38-2.24,11.2Z" style="fill: #020a26;"/>
        <path d="M340.54,164.11c-1.87,0-3.47-.33-4.8-1s-2.34-1.6-3.04-2.79c-.69-1.2-1.04-2.58-1.04-4.17s.27-3.04,.81-4.41c.54-1.38,1.31-2.58,2.32-3.63,1.01-1.04,2.21-1.86,3.62-2.44,1.4-.58,2.98-.88,4.72-.88,1.89,0,3.5,.33,4.83,1,1.33,.67,2.34,1.6,3.04,2.79s1.04,2.59,1.04,4.17-.27,3.04-.81,4.41c-.54,1.38-1.31,2.59-2.32,3.63-1.01,1.04-2.22,1.86-3.63,2.44-1.41,.58-2.99,.88-4.73,.88Zm.24-2.4c1.29,0,2.47-.23,3.53-.69,1.06-.46,1.96-1.1,2.7-1.92s1.3-1.76,1.7-2.82c.4-1.06,.59-2.19,.59-3.37s-.24-2.13-.73-2.98-1.21-1.52-2.16-2.01c-.95-.49-2.12-.73-3.51-.73-1.31,0-2.5,.23-3.55,.69-1.05,.46-1.95,1.1-2.7,1.92-.75,.82-1.32,1.76-1.71,2.82s-.59,2.19-.59,3.37,.25,2.13,.74,2.98c.49,.85,1.21,1.52,2.16,2.01,.94,.49,2.12,.73,3.52,.73Z" style="fill: #020a26;"/>
        <path d="M357.08,163.9l3.78-18.89h7.04c2.21,0,3.93,.49,5.14,1.46,1.21,.97,1.82,2.33,1.82,4.07,0,1.58-.36,2.94-1.07,4.07-.71,1.13-1.73,2-3.06,2.6-1.33,.6-2.91,.9-4.75,.9h-6.18l1.38-1.24-1.38,7.01h-2.72Zm4.05-6.72l-.92-1.35h5.85c1.92,0,3.42-.43,4.49-1.28,1.07-.85,1.61-2.11,1.61-3.76,0-1.13-.39-1.99-1.16-2.56-.77-.58-1.89-.86-3.35-.86h-5.67l1.38-1.38-2.24,11.2Zm8.66,6.72l-3.88-6.85h2.89l3.86,6.85h-2.86Z" style="fill: #020a26;"/>
        <path d="M383.14,163.9l3.29-16.54h-6.45l.46-2.35h15.62l-.49,2.35h-6.45l-3.32,16.54h-2.67Z" style="fill: #020a26;"/>
      </g>
    </g>
  </g>
</svg>